<?xml version="1.0" encoding="UTF-8" standalone="no"?>
<!DOCTYPE svg PUBLIC "-//W3C//DTD SVG 1.1//EN" "http://www.w3.org/Graphics/SVG/1.1/DTD/svg11.dtd">
<!-- Created with Vectornator (http://vectornator.io/) -->
<svg height="100%" stroke-miterlimit="10" style="fill-rule:nonzero;clip-rule:evenodd;stroke-linecap:round;stroke-linejoin:round;" version="1.1" viewBox="84.4717 98.3594 341.548 296.919" width="100%" xml:space="preserve" xmlns="http://www.w3.org/2000/svg" xmlns:vectornator="http://vectornator.io" xmlns:xlink="http://www.w3.org/1999/xlink">
<defs/>
<clipPath id="ArtboardFrame">
<rect height="296.919" width="341.548" x="84.4717" y="98.3594"/>
</clipPath>
<g clip-path="url(#ArtboardFrame)" id="Layer" vectornator:layerName="Layer">
<g opacity="1" vectornator:layerName="Group 1">
<path d="M241.317 218.072C231.055 200.865 206.134 200.866 195.875 218.074L98.7187 381.031L165.098 269.832C175.361 252.64 200.264 252.64 210.527 269.832L269.209 368.137C273.983 376.134 282.61 381.031 291.923 381.031L291.923 381.031C312.454 381.031 325.159 358.661 314.644 341.028L241.317 218.072Z" fill="none" opacity="1" stroke="#2661bd" stroke-linecap="butt" stroke-linejoin="miter" stroke-width="28.494"/>
<path d="M272.596 164.627C262.347 147.353 237.343 147.354 227.095 164.629L98.7188 381.031L165.098 269.832C175.361 252.64 200.264 252.64 210.527 269.832L269.209 368.137C273.983 376.134 282.61 381.031 291.923 381.031L338.5 381.031L354.544 381.031C375.048 381.031 387.757 358.713 377.294 341.079L272.596 164.627Z" fill="none" opacity="1" stroke="#2661bd" stroke-linecap="butt" stroke-linejoin="miter" stroke-width="28.494"/>
</g>
</g>
</svg>
