<?xml version="1.0" encoding="UTF-8" standalone="no"?>
<!DOCTYPE svg PUBLIC "-//W3C//DTD SVG 1.1//EN" "http://www.w3.org/Graphics/SVG/1.1/DTD/svg11.dtd">
<!-- Created with Vectornator (http://vectornator.io/) -->
<svg height="100%" stroke-miterlimit="10" style="fill-rule:nonzero;clip-rule:evenodd;stroke-linecap:round;stroke-linejoin:round;" version="1.1" viewBox="0 0 500 500" width="100%" xml:space="preserve" xmlns="http://www.w3.org/2000/svg" xmlns:vectornator="http://vectornator.io" xmlns:xlink="http://www.w3.org/1999/xlink">
<defs>
<filter color-interpolation-filters="sRGB" filterUnits="userSpaceOnUse" height="228.316" id="Filter" width="228.942" x="138.06" y="152.574">
<feDropShadow dx="2.53061" dy="16.7322" flood-color="#000000" flood-opacity="0.333" in="SourceGraphic" result="Shadow" stdDeviation="8.46123"/>
</filter>
</defs>
<g id="Layer-1" vectornator:layerName="Layer 1">
<path d="M127.517 107.168C121.229 107.168 115.07 107.664 108.992 108.416C108.209 114.524 107.672 120.714 107.648 127.038C107.623 133.448 107.993 139.754 108.752 145.947C109.432 151.501 110.502 156.925 111.775 162.266C111.787 162.314 111.812 162.361 111.823 162.41C112.188 163.933 112.659 165.417 113.071 166.921C114.132 170.808 115.313 174.642 116.671 178.392C116.722 178.534 116.763 178.682 116.815 178.824C117.321 180.202 117.805 181.593 118.35 182.951C118.369 182.998 118.38 183.048 118.398 183.095C120.415 188.116 122.635 193.012 125.166 197.734C136.409 218.708 152.523 236.574 171.961 249.712C167.08 252.956 162.394 256.502 157.946 260.319C153.503 264.129 149.286 268.23 145.324 272.558C141.355 276.893 137.624 281.479 134.189 286.284C130.753 291.09 127.586 296.129 124.734 301.354C119.032 311.805 114.561 323.02 111.487 334.855C108.414 346.689 106.736 359.132 106.688 371.955C106.663 378.578 107.272 385.047 108.08 391.44C114.454 392.269 120.911 392.832 127.517 392.832C178.809 392.832 223.874 367.024 250 328.039C276.128 367.013 321.152 392.833 372.435 392.832C378.756 392.832 384.947 392.344 391.056 391.584C391.835 385.494 392.329 379.315 392.352 373.01C392.546 321.719 366.926 276.561 328.039 250.288C367.111 224.307 393.119 179.376 393.312 128.093C393.337 121.453 392.733 114.969 391.92 108.56C385.531 107.727 379.057 107.168 372.435 107.168C366.024 107.168 359.715 107.585 353.525 108.368C348.005 109.065 342.61 110.157 337.302 111.439C335.532 111.867 333.815 112.389 332.071 112.879C328.423 113.904 324.845 115.045 321.32 116.335C319.604 116.962 317.869 117.566 316.185 118.254C312.049 119.945 308.023 121.828 304.09 123.87C302.618 124.633 301.164 125.411 299.723 126.222C295.801 128.429 291.981 130.783 288.3 133.325C286.94 134.263 285.641 135.27 284.316 136.253C281.275 138.508 278.334 140.88 275.485 143.356C274.192 144.479 272.849 145.549 271.598 146.715C267.766 150.289 264.073 154.037 260.655 157.994C256.823 162.43 253.266 167.089 250 171.961C223.874 132.976 178.809 107.168 127.517 107.168Z" fill="none" opacity="1" stroke="#250e5c" stroke-linecap="butt" stroke-linejoin="miter" stroke-width="33.3422" vectornator:layerName="Curve 1"/>
<path d="M170.25 157C166.156 157 162.146 157.323 158.188 157.812C157.678 161.79 157.328 165.82 157.312 169.938C157.297 174.111 157.538 178.218 158.031 182.25C158.474 185.866 159.171 189.398 160 192.875C160.008 192.906 160.024 192.937 160.031 192.969C160.269 193.961 160.576 194.927 160.844 195.906C161.535 198.437 162.304 200.934 163.188 203.375C163.221 203.467 163.247 203.564 163.281 203.656C163.611 204.554 163.926 205.459 164.281 206.344C164.294 206.374 164.3 206.407 164.312 206.438C165.626 209.706 167.071 212.894 168.719 215.969C176.039 229.625 186.532 241.258 199.188 249.813C196.01 251.925 192.958 254.233 190.062 256.719C187.169 259.199 184.424 261.87 181.844 264.688C179.26 267.51 176.83 270.496 174.594 273.625C172.357 276.755 170.295 280.035 168.438 283.438C164.725 290.242 161.814 297.544 159.812 305.25C157.811 312.956 156.719 321.057 156.688 329.406C156.671 333.719 157.068 337.931 157.594 342.094C161.744 342.633 165.948 343 170.25 343C203.647 343 232.989 326.196 250 300.812C267.012 326.189 296.328 343.001 329.719 343C333.835 343 337.865 342.682 341.844 342.188C342.35 338.222 342.672 334.198 342.688 330.094C342.814 296.697 326.132 267.294 300.812 250.188C326.253 233.271 343.187 204.016 343.312 170.625C343.329 166.302 342.935 162.079 342.406 157.906C338.246 157.364 334.031 157 329.719 157C325.545 157 321.437 157.272 317.406 157.781C313.812 158.235 310.3 158.946 306.844 159.781C305.691 160.06 304.573 160.4 303.438 160.719C301.062 161.386 298.732 162.129 296.438 162.969C295.32 163.377 294.191 163.771 293.094 164.219C290.401 165.32 287.779 166.546 285.219 167.875C284.26 168.372 283.314 168.878 282.375 169.406C279.822 170.843 277.334 172.376 274.938 174.031C274.052 174.642 273.207 175.298 272.344 175.938C270.363 177.406 268.449 178.951 266.594 180.563C265.752 181.294 264.877 181.99 264.062 182.75C261.568 185.077 259.163 187.517 256.938 190.094C254.443 192.982 252.126 196.016 250 199.188C232.989 173.804 203.647 157 170.25 157Z" fill="none" opacity="1" stroke="#250e5c" stroke-linecap="butt" stroke-linejoin="miter" stroke-width="33.3422"/>
<path d="M127.517 107.168C121.229 107.168 115.07 107.664 108.992 108.416C108.209 114.524 107.672 120.714 107.648 127.038C107.623 133.448 107.993 139.754 108.752 145.947C109.438 151.551 110.535 157.022 111.823 162.41C112.188 163.933 112.659 165.417 113.071 166.921C114.172 170.955 115.391 174.939 116.815 178.824C117.321 180.202 117.805 181.593 118.35 182.951C120.382 188.021 122.611 192.968 125.166 197.734C136.409 218.708 152.523 236.574 171.961 249.712C162.199 256.2 153.256 263.894 145.324 272.558C141.355 276.893 137.624 281.479 134.189 286.284C130.753 291.09 127.586 296.129 124.734 301.354C119.032 311.805 114.561 323.02 111.487 334.855C108.414 346.689 106.736 359.132 106.688 371.955C106.663 378.578 107.272 385.047 108.08 391.44C114.454 392.269 120.911 392.832 127.517 392.832C178.809 392.832 223.874 367.024 250 328.039C276.128 367.013 321.152 392.833 372.435 392.832C378.756 392.832 384.947 392.344 391.056 391.584C391.835 385.494 392.329 379.315 392.352 373.01C392.546 321.719 366.926 276.561 328.039 250.288C367.111 224.307 393.119 179.376 393.312 128.093C393.337 121.453 392.733 114.969 391.92 108.56C385.531 107.727 379.057 107.168 372.435 107.168C366.024 107.168 359.715 107.585 353.525 108.368C316.384 113.06 283.646 131.379 260.655 157.994C256.823 162.43 253.266 167.089 250 171.961C223.874 132.976 178.809 107.168 127.517 107.168Z" fill="none" opacity="1" stroke="#250e5c" stroke-linecap="butt" stroke-linejoin="miter" stroke-width="33.3422" vectornator:layerName="Curve 2"/>
<path d="M170.25 157C166.156 157 162.146 157.323 158.188 157.812C157.678 161.79 157.328 165.82 157.312 169.938C157.297 174.111 157.538 178.218 158.031 182.25C158.478 185.899 159.192 189.461 160.031 192.969C160.269 193.961 160.576 194.927 160.844 195.906C161.561 198.533 162.354 201.127 163.281 203.656C163.611 204.554 163.926 205.459 164.281 206.344C165.604 209.645 167.055 212.866 168.719 215.969C176.039 229.625 186.532 241.258 199.188 249.812C192.832 254.037 187.008 259.046 181.844 264.688C179.26 267.51 176.83 270.496 174.594 273.625C172.357 276.755 170.295 280.035 168.438 283.438C164.725 290.242 161.814 297.544 159.812 305.25C157.811 312.956 156.719 321.057 156.688 329.406C156.671 333.719 157.068 337.931 157.594 342.094C161.744 342.633 165.948 343 170.25 343C203.647 343 232.989 326.196 250 300.812C267.012 326.189 296.328 343 329.719 343C333.835 343 337.865 342.682 341.844 342.188C342.35 338.222 342.672 334.198 342.688 330.094C342.814 296.697 326.132 267.294 300.812 250.188C326.253 233.271 343.187 204.016 343.312 170.625C343.329 166.302 342.935 162.079 342.406 157.906C338.246 157.364 334.031 157 329.719 157C325.545 157 321.437 157.272 317.406 157.781C293.224 160.837 271.907 172.764 256.938 190.094C254.443 192.982 252.127 196.015 250 199.188C232.989 173.804 203.647 157 170.25 157Z" fill="none" filter="url(#Filter)" stroke="#250e5c" stroke-linecap="butt" stroke-linejoin="miter" stroke-width="0.01" vectornator:shadowAngle="1.42069" vectornator:shadowColor="#000000" vectornator:shadowOffset="16.9225" vectornator:shadowOpacity="0.333" vectornator:shadowRadius="16.9225"/>
</g>
</svg>
