<?xml version="1.0" encoding="UTF-8" standalone="no"?>
<!DOCTYPE svg PUBLIC "-//W3C//DTD SVG 1.1//EN" "http://www.w3.org/Graphics/SVG/1.1/DTD/svg11.dtd">
<!-- Created with Vectornator (http://vectornator.io/) -->
<svg height="500.0pt" stroke-miterlimit="10" style="fill-rule:nonzero;clip-rule:evenodd;stroke-linecap:round;stroke-linejoin:round;" version="1.1" viewBox="0 0 500 500" width="500.0pt" xml:space="preserve" xmlns="http://www.w3.org/2000/svg" xmlns:vectornator="http://vectornator.io" xmlns:xlink="http://www.w3.org/1999/xlink">
<defs>
<radialGradient cx="0" cy="0" gradientTransform="matrix(339.063 0.00861562 0.00861562 343.078 80.4749 249.998)" gradientUnits="userSpaceOnUse" id="RadialGradient" r="1">
<stop offset="0" stop-color="#5f4496"/>
<stop offset="1" stop-color="#aa51b4"/>
</radialGradient>
</defs>
<g id="Layer-1" vectornator:layerName="Layer 1">
<g opacity="1" vectornator:layerName="Curve 1">
<path d="M241.662 80.8149C214.072 81.8819 186.69 89.4918 162.569 103.065C121.509 126.169 91.029 167.636 82.7249 214.627C80.4495 227.504 79.9206 240.694 81.0374 253.721C82.4434 270.123 86.5272 286.283 92.9436 301.409C99.0399 315.78 107.287 329.218 117.381 341.065C134.827 361.539 157.597 377.207 182.537 386.784C196.262 392.053 210.665 395.478 225.287 396.815C263.201 400.281 302.627 390.15 333.694 367.721C343.086 360.94 351.655 353.004 359.256 344.221C375.63 325.301 387.355 302.151 392.319 277.471C401.096 233.829 387.597 187.069 357.35 154.784C345.592 142.233 331.554 131.94 316.225 124.315C287.691 110.121 255.148 105.596 223.912 111.659C199.738 116.35 176.645 127.121 158.006 143.471C142.352 157.203 129.888 174.729 122.162 194.19C115.444 211.113 112.458 229.45 113.694 247.659C114.673 262.098 118.162 276.341 123.975 289.565C129.224 301.506 136.305 312.621 145.006 322.284C164.735 344.193 192.24 358.787 221.162 363.252C255.417 368.541 292.061 359.392 319.35 337.627C325.577 332.661 331.11 326.965 336.162 320.846C331.479 326.423 326.335 331.615 320.725 336.221C293.343 358.704 255.979 368.066 221.287 362.346C197.352 358.399 174.464 347.442 156.412 331.034C148.456 323.801 141.506 315.473 135.756 306.346C128.613 295.007 123.366 282.402 120.319 269.315C116.664 253.619 116.177 237.21 119.1 221.346C122.311 203.919 129.531 187.279 139.756 172.909C151.933 155.797 168.309 142.036 187.037 132.815C210.099 121.46 236.382 116.791 261.881 119.534C280.419 121.528 298.523 127.598 314.725 136.909C329.517 145.409 342.791 156.645 353.319 170.19C362.425 181.906 369.417 195.238 373.975 209.409C377.868 221.512 380.028 234.177 380.194 246.909C380.332 257.546 379.13 268.191 376.537 278.502C368.103 312.04 345.994 341.352 316.85 359.284C298.006 370.877 276.435 377.88 254.506 380.034C232.113 382.233 209.456 379.144 188.412 371.096C165.986 362.52 145.579 348.477 129.819 330.159C120.759 319.628 113.338 307.699 107.819 294.909C102.295 282.109 98.7088 268.474 97.1624 254.596C96.0431 244.551 96.024 234.359 97.1624 224.315C101.159 189.054 119.15 156.167 145.287 132.721C154.585 124.381 164.922 117.265 175.944 111.471C204.017 96.7146 236.487 90.3981 267.975 93.4086C308.814 97.3131 348.224 117.05 375.569 148.065C386.608 160.586 395.587 174.965 402.131 190.377C408.357 205.039 412.345 220.628 413.975 236.502C415.252 248.945 415.07 261.523 413.319 273.909C407.886 312.337 387.809 348.048 359.162 373.659C347.791 383.825 335.017 392.399 321.412 399.19C287.3 416.219 247.956 422.444 210.35 416.565C182.011 412.135 154.746 400.936 131.256 384.315C124.378 379.448 117.872 374.107 111.756 368.346C117.871 374.125 124.345 379.489 131.225 384.377C155.504 401.629 183.88 413.133 213.256 417.409C252.92 423.181 294.484 415.713 329.756 396.471C376.811 370.801 411.259 323.045 418.225 269.065C420.106 254.484 419.93 239.61 417.819 225.065C415.443 208.703 410.658 192.715 403.631 177.784C396.552 162.742 387.207 148.812 375.975 136.627C348.209 106.506 309.577 86.8991 269.194 81.9711C260.062 80.8568 250.859 80.4592 241.662 80.8149Z" fill="url(#RadialGradient)" fill-rule="nonzero" stroke="none"/>
<path d="M241.563 78.4062C239.839 78.4899 240.485 78.6971 239.812 78.5C239.253 78.336 238.645 78.5596 238.062 78.5937C237.48 78.6279 236.926 78.6474 236.344 78.6875C234.016 78.8479 231.664 79.0623 229.344 79.3125C220.643 80.2508 212.032 81.8258 203.562 84.0312C185.034 88.8561 167.171 96.6367 151.219 107.25C134.642 118.279 120.1 132.378 108.469 148.531C96.7985 164.738 88.0288 183.088 83.0312 202.437C69.865 253.415 84.3615 309.121 120.25 347.594C149.616 379.074 191.694 398.18 234.719 399.531C269.346 400.619 304.485 390.699 332.938 370.812C344.105 363.007 354.15 353.611 362.844 343.125C370.277 334.159 376.688 324.334 381.875 313.906C389.221 299.14 394.135 283.145 396.031 266.75C400.641 226.888 387.517 185.369 360.656 155.531C343.027 135.949 319.878 121.42 294.719 113.687C276.897 108.21 258.054 106.141 239.469 107.656C208.385 110.191 177.932 122.789 154.844 143.875C145.733 152.196 137.77 161.807 131.25 172.281C125.22 181.968 120.414 192.424 117.094 203.344C113.516 215.109 111.664 227.388 111.688 239.687C111.715 253.988 114.24 268.279 119.031 281.75C124.288 296.529 132.302 310.396 142.656 322.188C154.094 335.213 168.208 345.782 183.812 353.313C196.175 359.278 209.489 363.335 223.094 365.188C247.792 368.551 273.485 364.554 296.031 353.938C308.31 348.156 319.736 340.423 329.312 330.781C331.198 328.883 333.021 326.921 334.781 324.906C335.321 324.289 335.852 323.657 336.375 323.031C336.495 322.888 336.599 322.737 336.719 322.594C336.782 322.519 336.843 322.449 336.906 322.375C336.934 322.343 336.998 322.287 337 322.281C337.005 322.275 337.096 322.158 337.094 322.156C336.377 321.411 335.701 320.63 334.906 319.969C334.894 319.958 334.737 320.126 334.625 320.25C334.393 320.506 334.114 320.851 334.094 320.875C333.189 321.912 332.261 322.913 331.344 323.938C330.552 324.804 329.755 325.689 328.938 326.531C325.518 330.056 321.883 333.36 318.031 336.406C305.486 346.326 290.861 353.531 275.469 357.812C258.69 362.48 240.931 363.737 223.688 361.219C191.267 356.483 160.782 338.737 141.438 312.188C132.697 300.192 126.278 286.57 122.5 272.219C119.265 259.93 117.981 247.118 118.844 234.438C119.608 223.207 122.085 212.133 126.031 201.594C129.733 191.71 134.715 182.282 140.844 173.688C148.85 162.461 158.726 152.62 169.938 144.594C202.569 121.232 245.905 114.056 284.375 125.281C301.502 130.279 317.65 138.706 331.562 149.875C345.027 160.684 356.227 174.151 364.281 189.437C371.383 202.918 376.045 217.672 378 232.781C379.62 245.301 379.345 258.074 377.094 270.5C375.167 281.137 371.78 291.531 367.188 301.312C357.401 322.155 342.13 340.373 323.344 353.688C293.278 374.996 254.676 383.604 218.344 378C198.89 374.999 180.119 367.945 163.406 357.562C147.224 347.51 133.002 334.263 122.094 318.625C112.523 304.906 105.559 289.46 101.469 273.25C97.9667 259.371 96.5844 244.944 97.5 230.656C99.7897 194.926 116.86 160.903 142.656 136.312C151.188 128.179 160.707 121.094 170.906 115.187C198.286 99.3317 230.471 91.8905 262.031 93.7187C282.308 94.8934 302.26 99.9906 320.719 108.437C338.985 116.796 355.784 128.485 369.813 142.875C380.814 154.16 390.015 167.125 397.125 181.187C403.763 194.316 408.542 208.366 411.312 222.812C414.332 238.56 415.034 254.821 413.125 270.75C407.653 316.419 381.325 358.615 343.938 385.094C310.864 408.517 269.691 420 229.281 418.031C214.624 417.317 200.086 414.775 186.031 410.563C176.881 407.82 167.913 404.391 159.281 400.281C155.53 398.495 151.875 396.529 148.25 394.5C147.096 393.849 145.953 393.175 144.812 392.5C141.331 390.453 137.872 388.359 134.531 386.094C134.5 386.073 134.469 386.052 134.438 386.031C134.394 386.002 134.356 385.967 134.312 385.938C131.766 384.205 129.267 382.39 126.812 380.531C126.505 380.298 126.213 380.048 125.906 379.813C123.61 378.05 121.334 376.278 119.125 374.406C119.103 374.387 119.085 374.363 119.062 374.344C118.978 374.272 118.897 374.197 118.812 374.125C117.301 372.838 115.813 371.523 114.344 370.188C113.827 369.718 113.293 369.257 112.781 368.781C112.62 368.631 112.474 368.463 112.312 368.312C112.301 368.302 112.292 368.299 112.281 368.281C112.28 368.28 112.237 368.266 112.219 368.25C112.038 368.441 111.866 368.619 111.687 368.812C111.687 368.813 111.778 368.903 111.781 368.906C111.943 369.058 112.088 369.192 112.25 369.344C112.507 369.584 112.773 369.824 113.031 370.062C113.289 370.3 113.553 370.545 113.812 370.781C115.109 371.963 116.42 373.137 117.75 374.281C117.772 374.3 117.79 374.325 117.812 374.344C118.053 374.551 118.289 374.762 118.531 374.969C119.677 375.946 120.924 376.803 122.094 377.75C124.361 379.579 126.616 381.408 128.969 383.125C130.989 384.606 133.077 385.977 135.156 387.375C136.282 388.128 137.358 388.959 138.5 389.688C139.091 390.064 139.718 390.38 140.312 390.75C141.392 391.425 142.407 392.19 143.5 392.844C145.043 393.767 146.652 394.56 148.219 395.438C149.037 395.894 149.862 396.337 150.688 396.781C153.774 398.451 156.895 400.039 160.062 401.531C160.57 401.769 161.084 401.985 161.594 402.219C189.414 415.027 220.062 421.109 250.781 419.281C282.785 417.378 314.484 407.354 341.375 389.812C356.325 380.06 369.772 367.954 381.094 354.156C398.12 333.407 410.429 308.741 416.094 282.469C424.386 244.009 417.965 202.872 399 168.469C391.416 154.712 381.858 142.075 370.688 131.031C356.703 117.206 340.282 105.936 322.5 97.5312C328.332 100.296 334.038 103.394 339.531 106.781C355.87 116.854 370.614 129.592 382.688 144.531C410.633 179.109 423.743 224.896 418.062 269.031C416.058 284.604 411.688 299.907 405.312 314.25C398.979 328.498 390.653 341.835 380.75 353.875C369.443 367.622 356.046 379.697 341.125 389.406C319.692 403.352 295.21 412.338 269.938 416.406C294.147 412.27 317.612 403.522 338.25 390.25C371.572 368.821 397.077 335.633 408.656 297.688C413.466 281.926 415.787 265.448 415.406 248.969C415.033 232.79 412.174 216.646 407 201.312C400.579 182.281 390.542 164.446 377.469 149.187C349.213 116.209 307.371 95.3937 264.094 92.3125C231.589 89.9983 198.336 97.4383 170.094 113.75C159.775 119.71 150.105 126.88 141.469 135.094C116.879 158.481 100.098 190.37 96.2812 224.219C94.7459 237.837 95.2758 251.655 97.7812 265.125C100.669 280.65 106.162 295.665 114 309.375C123.379 325.781 136.12 340.103 151.156 351.531C166.894 363.493 185.068 372.287 204.219 377.188C245.676 387.796 291.735 379.548 326.375 354.188C342.053 342.709 355.258 327.845 364.781 310.906C370.274 301.136 374.547 290.693 377.375 279.844C380.58 267.548 381.839 254.781 381.188 242.094C380.419 227.14 376.977 212.306 371.188 198.5C364.744 183.133 355.337 169.069 343.531 157.312C330.684 144.518 315.185 134.41 298.406 127.562C284.774 121.999 270.267 118.591 255.563 117.719C215.853 115.365 175.743 130.461 148.656 159.812C141.031 168.075 134.533 177.353 129.375 187.344C124.244 197.282 120.397 207.944 118.156 218.906C115.626 231.285 115.15 244.052 116.656 256.594C117.248 261.525 118.25 266.399 119.437 271.219C117.269 263.109 115.832 254.791 115.344 246.406C114.692 235.21 115.681 223.966 118.156 213.031C120.414 203.055 123.971 193.371 128.594 184.25C136.622 168.409 147.87 154.232 161.5 142.844C189.966 119.059 228.24 107.992 265.031 111.562C305.748 115.514 344.413 137.231 367.906 170.875C376.713 183.487 383.373 197.619 387.594 212.406C391.073 224.598 392.904 237.288 392.969 249.969C393.041 264.244 390.817 278.477 386.438 292.062C382.955 302.866 378.181 313.243 372.281 322.938C362.561 338.911 349.731 353.104 334.781 364.344C306.968 385.255 271.916 395.945 237.219 395.344C217.143 394.996 197.225 390.674 178.719 382.906C159.937 375.023 142.574 363.657 128.062 349.344C90.0057 311.806 74.0278 255.359 87.4687 203.562C94.0527 178.19 107.315 154.689 125.156 135.531C145.023 114.199 170.299 98.8865 198.188 90.5C208.521 87.3925 219.145 85.2383 229.875 84.0937C232.697 83.7927 235.51 83.5381 238.344 83.375C238.91 83.3424 238.358 83.3808 241.781 83.2187C243.085 83.1563 244.054 82.0457 244.031 80.75C244.031 80.7254 244.064 80.7123 244.062 80.6875C243.999 79.3594 242.891 78.3426 241.563 78.4062ZM322.5 97.5312C319.977 96.3388 317.42 95.2281 314.844 94.1562C317.421 95.2315 319.977 96.3351 322.5 97.5312ZM314.844 94.1562C314.197 93.8863 313.556 93.606 312.906 93.3437C313.556 93.605 314.197 93.8873 314.844 94.1562ZM312.906 93.3437C310.322 92.3043 307.724 91.3219 305.094 90.4062C307.72 91.3235 310.326 92.3032 312.906 93.3437ZM248.562 80.6875C247.413 80.6845 246.274 80.6984 245.125 80.7187C246.554 80.6918 247.977 80.742 249.406 80.75C249.124 80.7479 248.845 80.6882 248.562 80.6875ZM249.406 80.75C253.821 80.7833 258.225 81.0966 262.625 81.4687C259.468 81.2042 256.324 80.8404 253.156 80.75C251.905 80.7143 250.659 80.757 249.406 80.75ZM262.625 81.4687C264.521 81.6277 266.423 81.6848 268.312 81.9062C267.843 81.8508 267.376 81.7702 266.906 81.7187C265.485 81.563 264.05 81.5893 262.625 81.4687ZM268.312 81.9062C269.43 82.0382 270.542 82.2209 271.656 82.375C270.541 82.2222 269.431 82.0373 268.312 81.9062ZM271.656 82.375C275.432 82.8925 279.203 83.5459 282.938 84.3125C279.201 83.5386 275.437 82.8979 271.656 82.375ZM282.938 84.3125C287.115 85.1778 291.272 86.1422 295.375 87.3125C292.099 86.3827 288.825 85.4848 285.5 84.75C284.655 84.5631 283.786 84.4866 282.938 84.3125ZM295.375 87.3125C298.163 88.1079 300.911 89.0048 303.656 89.9375C300.908 89.0072 298.166 88.1047 295.375 87.3125ZM258.125 418.062C257.604 418.113 257.084 418.141 256.562 418.188C257.083 418.137 257.605 418.118 258.125 418.062Z" fill="#483058" stroke="none"/>
</g>
</g>
</svg>
