<?xml version="1.0" encoding="UTF-8" standalone="no"?>
<!DOCTYPE svg PUBLIC "-//W3C//DTD SVG 1.1//EN" "http://www.w3.org/Graphics/SVG/1.1/DTD/svg11.dtd">
<!-- Created with Vectornator (http://vectornator.io/) -->
<svg height="500.0pt" stroke-miterlimit="10" style="fill-rule:nonzero;clip-rule:evenodd;stroke-linecap:round;stroke-linejoin:round;" version="1.1" viewBox="0 0 500 500" width="500.0pt" xml:space="preserve" xmlns="http://www.w3.org/2000/svg" xmlns:vectornator="http://vectornator.io" xmlns:xlink="http://www.w3.org/1999/xlink">
<defs>
<filter color-interpolation-filters="sRGB" filterUnits="userSpaceOnUse" height="60.3247" id="Filter" width="60.3247" x="308.078" y="258.557">
<feDropShadow dx="1.49541" dy="9.88755" flood-color="#000000" flood-opacity="0.333" in="SourceGraphic" result="Shadow" stdDeviation="5"/>
</filter>
<filter color-interpolation-filters="sRGB" filterUnits="userSpaceOnUse" height="372.959" id="Filter_2" width="402.485" x="59.7877" y="74.7781">
<feDropShadow dx="2.24659" dy="14.8543" flood-color="#000000" flood-opacity="0.333" in="SourceGraphic" result="Shadow" stdDeviation="7.5116"/>
</filter>
<filter color-interpolation-filters="sRGB" filterUnits="userSpaceOnUse" height="407.438" id="Filter_3" width="437.118" x="33.9714" y="49.5221">
<feDropShadow dx="2.53061" dy="16.7322" flood-color="#000000" flood-opacity="0.333" in="SourceGraphic" result="Shadow" stdDeviation="8.46123"/>
</filter>
</defs>
<g id="Layer-1" vectornator:layerName="Layer 1">
<path d="M336.745 278.832L336.745 278.832" fill="none" filter="url(#Filter)" stroke="#ce2e59" stroke-linecap="butt" stroke-linejoin="miter" stroke-width="17.6624" vectornator:layerName="Curve 1" vectornator:shadowAngle="1.42069" vectornator:shadowColor="#000000" vectornator:shadowOffset="10" vectornator:shadowOpacity="0.333" vectornator:shadowRadius="10"/>
<g filter="url(#Filter_2)" vectornator:layerName="Curve 2" vectornator:shadowAngle="1.42069" vectornator:shadowColor="#000000" vectornator:shadowOffset="15.0232" vectornator:shadowOpacity="0.333" vectornator:shadowRadius="15.0232">
<path d="M212.25 228.906C209.516 228.661 206.767 228.692 204.031 228.969C198.718 229.505 193.502 231.031 188.75 233.469C187.203 234.262 185.703 235.188 184.219 236.094C175.107 242.641 169.994 252.551 169 262.906C165.777 276.025 167.865 290.412 175.937 301.594C178.493 305.134 181.583 308.241 185.062 310.875C190.75 315.181 197.795 317.805 204.875 318.5C211.017 319.103 217.25 318.244 223.031 316.094C227.839 314.306 232.27 311.595 236.125 308.219C250.103 295.973 255.303 275.559 249.156 258.062C247.592 253.609 245.305 249.406 242.437 245.656C240.096 242.595 237.348 239.836 234.281 237.5C230.106 234.32 225.384 231.907 220.344 230.438C217.702 229.668 214.984 229.152 212.25 228.906ZM203.437 264.906C203.469 264.909 203.5 264.903 203.531 264.906C204.807 265.044 206.248 265.345 207.375 266C207.505 266.075 207.559 266.266 207.688 266.344C207.937 266.495 208.21 266.553 208.469 266.688C208.94 266.933 209.24 267.377 209.625 267.719C209.798 267.873 210.038 267.957 210.156 268.156C210.21 268.247 210.049 268.332 210.062 268.438C210.085 268.615 210.295 268.759 210.281 268.938C210.273 269.044 209.998 269.018 210 269.125C210.004 269.35 210.295 269.53 210.25 269.75C209.992 271.023 208.408 270.961 207.531 270.469C205.678 269.428 204.439 267.502 203.625 265.594C203.532 265.375 203.519 265.129 203.437 264.906ZM232.875 96.75C202.345 96.0381 171.833 105.349 147.062 123.406C131.551 134.714 118.47 149.164 108.281 165.406C85.5438 201.653 77.9132 246.205 87.25 288C90.681 303.358 96.4172 318.236 104.562 331.719C108.618 338.431 113.243 344.81 118.438 350.688C124.277 357.294 130.814 363.301 137.938 368.5C143.909 372.859 150.311 376.636 157.031 379.719C160.193 381.169 163.465 382.341 166.719 383.562C186.412 389.734 207.36 378.787 213.531 359.094C219.703 339.401 208.756 318.421 189.062 312.25C187.839 311.94 186.588 311.759 185.375 311.406C183.365 310.822 181.412 310.045 179.531 309.125C165.412 302.215 155.683 287.986 150.187 273.688C139.383 245.576 142.224 213.216 156.375 186.812C161.525 177.204 168.117 168.382 176.062 160.906C182.571 154.782 189.992 149.651 197.969 145.625C204.754 142.2 211.95 139.567 219.344 137.812C225.262 136.408 231.3 135.538 237.375 135.219C279.306 133.014 318.324 156.63 345.312 187.156C365.251 209.708 379.531 236.773 388.812 265.312C397.551 292.182 401.881 320.505 401.906 348.75C401.915 358.108 401.405 367.438 400.531 376.75C402.709 366.237 404.417 355.632 405.438 344.938C408.545 312.377 405.993 279.256 397.625 247.625C388.773 214.164 373.1 182.456 350.344 156.25C332.47 135.667 310.248 118.563 285.031 108C272.551 102.772 259.377 99.2503 245.938 97.6562C241.591 97.1407 237.236 96.8517 232.875 96.75Z" fill="#ce2e59" stroke="none"/>
</g>
<g filter="url(#Filter_3)" vectornator:layerName="Spiral 1" vectornator:shadowAngle="1.42069" vectornator:shadowColor="#000000" vectornator:shadowOffset="16.9225" vectornator:shadowOpacity="0.333" vectornator:shadowRadius="16.9225">
<path d="M237.531 81.6562C226.435 81.1171 215.301 81.8712 204.375 83.875C191.405 86.2538 178.748 90.3986 166.844 96.0625C152.619 102.83 139.523 111.833 127.969 122.531C87.5644 159.945 66.3061 216.74 72.0625 271.469C73.4004 284.189 76.1751 296.78 80.5312 308.812C92.1426 340.885 116.021 369.132 148.75 380.719C154.023 382.585 159.446 383.959 164.969 384.844C172.1 385.986 179.362 386.27 186.562 385.719C195.272 385.051 203.871 383.148 212.062 380.125C221.168 376.764 229.736 372 237.438 366.094C272.619 339.11 288.311 289.803 274.094 247.625C272.004 241.424 269.279 235.434 265.875 229.844C262.111 223.663 257.521 217.963 252.25 213C246.409 207.5 239.707 202.9 232.406 199.562C223.434 195.461 213.649 193.328 203.781 193.406C197.816 193.453 191.839 194.301 186.094 195.906C159.733 203.271 140.25 225.922 134.937 252.5C130.519 274.607 136.279 298.86 152.5 314.969C155.458 317.906 158.741 320.53 162.25 322.781C164.75 324.385 167.407 325.711 170.125 326.906C170.042 326.895 169.958 326.918 169.875 326.906C165.127 326.234 160.579 324.564 156.375 322.281C137.019 311.772 125.953 290.286 121.156 269.562C111.206 226.578 125.374 179.224 155.594 147.406C163.734 138.835 173.117 131.449 183.406 125.625C192.093 120.707 201.385 116.858 211.031 114.281C218.831 112.198 226.875 110.944 234.938 110.531C241.008 110.22 247.114 110.406 253.156 111.062C291.328 115.211 325.226 138.155 349.312 167.188C367.631 189.268 380.776 215.232 389.531 242.469C400.23 275.751 404.49 311.076 403.062 345.969C402.638 356.355 401.648 366.667 400.281 376.969C402.46 366.767 404.288 356.517 405.531 346.156C409.785 310.697 408.142 274.377 399.906 239.594C393.426 212.226 382.806 185.776 367.344 162.219C343.145 125.351 306.48 95.2739 262.938 85.1875C254.606 83.2575 246.073 82.0713 237.531 81.6562ZM203.594 265.719C203.792 265.597 204.278 265.853 204.438 265.938C204.742 266.098 204.978 266.374 205.25 266.594C204.776 266.479 204.282 266.401 203.875 266.156C203.799 266.11 203.419 265.826 203.594 265.719Z" fill="#bd264f" stroke="none"/>
</g>
</g>
</svg>
